<?xml version="1.0" encoding="UTF-8"?>
<!DOCTYPE svg PUBLIC "-//W3C//DTD SVG 1.1//EN" "http://www.w3.org/Graphics/SVG/1.1/DTD/svg11.dtd">
<svg version="1.2" width="132.82mm" height="132.82mm" viewBox="0 0 13282 13282" preserveAspectRatio="xMidYMid" fill-rule="evenodd" stroke-width="28.222" stroke-linejoin="round" xmlns="http://www.w3.org/2000/svg" xmlns:ooo="http://xml.openoffice.org/svg/export" xmlns:xlink="http://www.w3.org/1999/xlink" xmlns:presentation="http://sun.com/xmlns/staroffice/presentation" xmlns:smil="http://www.w3.org/2001/SMIL20/" xmlns:anim="urn:oasis:names:tc:opendocument:xmlns:animation:1.0" xmlns:svg="urn:oasis:names:tc:opendocument:xmlns:svg-compatible:1.0" xml:space="preserve">
 <defs class="ClipPathGroup">
  <clipPath id="presentation_clip_path" clipPathUnits="userSpaceOnUse">
   <rect x="0" y="0" width="13282" height="13282"/>
  </clipPath>
  <clipPath id="presentation_clip_path_shrink" clipPathUnits="userSpaceOnUse">
   <rect x="13" y="13" width="13256" height="13256"/>
  </clipPath>
 </defs>
 <defs class="TextShapeIndex">
  <g ooo:slide="id1" ooo:id-list="id3"/>
 </defs>
 <defs class="EmbeddedBulletChars">
  <g id="bullet-char-template-57356" transform="scale(0.00048828125,-0.00048828125)">
   <path d="M 580,1141 L 1163,571 580,0 -4,571 580,1141 Z"/>
  </g>
  <g id="bullet-char-template-57354" transform="scale(0.00048828125,-0.00048828125)">
   <path d="M 8,1128 L 1137,1128 1137,0 8,0 8,1128 Z"/>
  </g>
  <g id="bullet-char-template-10146" transform="scale(0.00048828125,-0.00048828125)">
   <path d="M 174,0 L 602,739 174,1481 1456,739 174,0 Z M 1358,739 L 309,1346 659,739 1358,739 Z"/>
  </g>
  <g id="bullet-char-template-10132" transform="scale(0.00048828125,-0.00048828125)">
   <path d="M 2015,739 L 1276,0 717,0 1260,543 174,543 174,936 1260,936 717,1481 1274,1481 2015,739 Z"/>
  </g>
  <g id="bullet-char-template-10007" transform="scale(0.00048828125,-0.00048828125)">
   <path d="M 0,-2 C -7,14 -16,27 -25,37 L 356,567 C 262,823 215,952 215,954 215,979 228,992 255,992 264,992 276,990 289,987 310,991 331,999 354,1012 L 381,999 492,748 772,1049 836,1024 860,1049 C 881,1039 901,1025 922,1006 886,937 835,863 770,784 769,783 710,716 594,584 L 774,223 C 774,196 753,168 711,139 L 727,119 C 717,90 699,76 672,76 641,76 570,178 457,381 L 164,-76 C 142,-110 111,-127 72,-127 30,-127 9,-110 8,-76 1,-67 -2,-52 -2,-32 -2,-23 -1,-13 0,-2 Z"/>
  </g>
  <g id="bullet-char-template-10004" transform="scale(0.00048828125,-0.00048828125)">
   <path d="M 285,-33 C 182,-33 111,30 74,156 52,228 41,333 41,471 41,549 55,616 82,672 116,743 169,778 240,778 293,778 328,747 346,684 L 369,508 C 377,444 397,411 428,410 L 1163,1116 C 1174,1127 1196,1133 1229,1133 1271,1133 1292,1118 1292,1087 L 1292,965 C 1292,929 1282,901 1262,881 L 442,47 C 390,-6 338,-33 285,-33 Z"/>
  </g>
  <g id="bullet-char-template-9679" transform="scale(0.00048828125,-0.00048828125)">
   <path d="M 813,0 C 632,0 489,54 383,161 276,268 223,411 223,592 223,773 276,916 383,1023 489,1130 632,1184 813,1184 992,1184 1136,1130 1245,1023 1353,916 1407,772 1407,592 1407,412 1353,268 1245,161 1136,54 992,0 813,0 Z"/>
  </g>
  <g id="bullet-char-template-8226" transform="scale(0.00048828125,-0.00048828125)">
   <path d="M 346,457 C 273,457 209,483 155,535 101,586 74,649 74,723 74,796 101,859 155,911 209,963 273,989 346,989 419,989 480,963 531,910 582,859 608,796 608,723 608,648 583,586 532,535 482,483 420,457 346,457 Z"/>
  </g>
  <g id="bullet-char-template-8211" transform="scale(0.00048828125,-0.00048828125)">
   <path d="M -4,459 L 1135,459 1135,606 -4,606 -4,459 Z"/>
  </g>
  <g id="bullet-char-template-61548" transform="scale(0.00048828125,-0.00048828125)">
   <path d="M 173,740 C 173,903 231,1043 346,1159 462,1274 601,1332 765,1332 928,1332 1067,1274 1183,1159 1299,1043 1357,903 1357,740 1357,577 1299,437 1183,322 1067,206 928,148 765,148 601,148 462,206 346,322 231,437 173,577 173,740 Z"/>
  </g>
 </defs>
 <g>
  <g id="id2" class="Master_Slide">
   <g id="bg-id2" class="Background"/>
   <g id="bo-id2" class="BackgroundObjects"/>
  </g>
 </g>
 <g class="SlideGroup">
  <g>
   <g id="container-id1">
    <g id="id1" class="Slide" clip-path="url(#presentation_clip_path)">
     <g class="Page">
      <g class="Graphic">
       <g id="id3">
        <rect class="BoundingBox" stroke="none" fill="none" x="0" y="0" width="1712" height="1498"/>
        <defs>
         <clipPath id="clip_path_1" clipPathUnits="userSpaceOnUse">
          <path d="M 0,0 L 1711,0 1711,1497 0,1497 0,0 Z"/>
         </clipPath>
        </defs>
        <g clip-path="url(#clip_path_1)">
         <path fill="rgb(255,255,255)" stroke="none" d="M 1288,1028 L 1288,1028 1288,1028 C 1338,1028 1387,1016 1430,991 1473,965 1509,929 1534,886 1559,842 1572,793 1572,744 1572,694 1559,645 1534,601 1509,558 1473,522 1430,497 1403,482 1375,470 1345,464 L 1345,464 C 1336,435 1324,407 1308,381 1273,320 1222,268 1161,233 1100,197 1030,179 959,179 888,179 818,197 757,233 703,264 657,308 622,360 L 622,360 C 589,349 553,343 517,343 457,343 398,359 346,389 294,419 251,462 222,515 191,566 176,626 176,686 176,746 191,805 222,857 251,909 294,952 346,983 398,1013 457,1028 517,1028 L 517,1028 1288,1028 Z"/>
         <path fill="rgb(35,24,21)" stroke="none" d="M 1288,1070 L 1288,1070 C 1345,1069 1400,1054 1449,1026 1499,997 1540,955 1569,905 1591,867 1605,825 1610,782 1631,616 1517,459 1356,424 L 1384,453 C 1335,297 1203,174 1040,145 L 1040,145 C 1014,140 988,138 962,138 883,138 805,159 736,199 676,234 625,282 587,339 L 633,320 C 461,267 269,341 183,500 99,653 129,849 257,967 L 257,967 C 278,987 301,1003 325,1018 384,1051 450,1069 517,1070 570,1071 570,988 517,987 383,986 263,896 228,765 L 228,765 C 221,739 218,713 218,687 218,634 232,581 258,535 284,489 322,451 368,424 442,381 529,374 611,399 630,405 648,395 658,381 738,262 885,198 1026,226 L 1026,226 C 1065,234 1104,248 1139,269 1195,301 1241,348 1273,403 1286,426 1297,451 1305,475 L 1305,475 C 1306,479 1307,482 1309,485 1312,491 1318,496 1324,500 1327,502 1331,503 1334,504 1457,531 1545,646 1529,774 1514,896 1408,985 1288,987 1235,988 1235,1070 1288,1069 L 1288,1070 1288,1070 Z"/>
         <path fill="rgb(46,167,224)" stroke="none" d="M 667,830 L 626,725 C 618,704 599,690 576,696 556,701 539,726 547,747 L 587,853 C 595,873 615,888 638,882 658,875 675,851 667,830 L 667,830 667,830 Z"/>
         <path fill="rgb(46,167,224)" stroke="none" d="M 875,830 L 834,725 C 826,704 807,690 784,696 764,702 747,726 755,747 L 795,853 C 803,873 823,888 846,882 866,876 883,851 875,830 L 875,830 875,830 Z"/>
         <path fill="rgb(46,167,224)" stroke="none" d="M 1083,830 L 1042,725 C 1034,704 1015,690 992,696 972,702 955,726 963,747 L 1003,853 C 1011,873 1031,888 1054,882 1074,876 1091,851 1083,830 L 1083,830 1083,830 Z"/>
         <path fill="rgb(46,167,224)" stroke="none" d="M 757,1067 L 717,961 C 708,940 689,926 666,932 646,937 629,962 637,983 L 677,1088 C 686,1109 705,1124 728,1117 748,1112 765,1088 757,1067 L 757,1067 757,1067 Z"/>
         <path fill="rgb(46,167,224)" stroke="none" d="M 965,1067 L 925,961 C 917,940 897,926 874,932 855,937 837,962 845,983 L 886,1088 C 894,1109 913,1124 936,1117 956,1112 973,1088 965,1067 L 965,1067 965,1067 Z"/>
         <path fill="rgb(46,167,224)" stroke="none" d="M 1173,1067 L 1133,961 C 1125,940 1105,926 1082,932 1063,937 1045,962 1053,983 L 1094,1088 C 1102,1109 1121,1124 1144,1117 1164,1112 1181,1088 1173,1067 L 1173,1067 1173,1067 Z"/>
         <path fill="rgb(46,167,224)" stroke="none" d="M 847,1303 L 807,1197 C 799,1176 779,1162 756,1168 737,1174 719,1198 727,1219 L 768,1325 C 776,1346 795,1360 818,1354 838,1348 855,1324 847,1303 L 847,1303 847,1303 Z"/>
         <path fill="rgb(46,167,224)" stroke="none" d="M 1055,1303 L 1015,1197 C 1007,1176 987,1162 964,1168 945,1174 927,1198 935,1219 L 976,1325 C 984,1346 1003,1360 1026,1354 1046,1348 1063,1324 1055,1303 L 1055,1303 1055,1303 Z"/>
         <path fill="rgb(46,167,224)" stroke="none" d="M 1263,1303 L 1223,1197 C 1215,1176 1195,1162 1172,1168 1153,1174 1135,1198 1143,1219 L 1184,1325 C 1192,1346 1211,1360 1234,1354 1255,1348 1271,1324 1263,1303 L 1263,1303 1263,1303 Z"/>
        </g>
       </g>
      </g>
     </g>
    </g>
   </g>
  </g>
 </g>
</svg>